<svg xmlns="http://www.w3.org/2000/svg" viewBox="0 0 567 296"><defs><style>.cls-1{isolation:isolate;}.cls-2{opacity:0.5;}.cls-3{mix-blend-mode:luminosity;}.cls-4{fill:#d9ba5f;}</style></defs><g class="cls-1"><g id="Calque_1" data-name="Calque 1"><g class="cls-2"><g class="cls-3"><path class="cls-4" d="M514.45,148.68c-1.37,1.28-2.68,2.07-3.91,3.23a43.9,43.9,0,0,1,3.08-3.72A70.72,70.72,0,0,1,530,135.57c-1.38.71-2.83,1.31-4.18,2.11s-2.73,1.55-4.06,2.38c2.47-1.7,5.16-3.39,7.58-4.74,1.38-.88,2.74-1.6,4.08-2.31l2-1.08c.67-.36,1.37-.64,2.07-1-.73.22-1.49.4-2.21.66l-2.16.79-2.19.82c-.73.29-1.43.66-2.16,1A65.75,65.75,0,0,0,515.3,143a66.85,66.85,0,0,0-12.5,13.35,73.28,73.28,0,0,0-8.45,16c-1.26,3.17-1.86,6.27-2.83,9.27a58.16,58.16,0,0,1-4.92,5.94l.11-.15a22.29,22.29,0,0,1-6,6.88,14.49,14.49,0,0,1-7.66,2.67,36,36,0,0,1-9.63-1.16c-3.5-.77-7.21-1.79-11.36-2.45a31.85,31.85,0,0,0-12.75.24,32.33,32.33,0,0,0-3.33,1.09,25.29,25.29,0,0,0-3.12,1.57,23.59,23.59,0,0,0-5.43,4.52,28,28,0,0,0-3.79,5.62,40.32,40.32,0,0,0-2.32,5.8,83.78,83.78,0,0,0-2.5,11,148.71,148.71,0,0,1-3.23,16.11c-1.37,4.83-3.3,8.85-5.94,11.37s-5.91,3.89-10.34,4.23-9.54-.32-14.92-1.2-11.08-2-17.33-2.47a54.77,54.77,0,0,0-9.82.07,34.44,34.44,0,0,0-10.48,2.73,29.32,29.32,0,0,0-8,5.21,31.55,31.55,0,0,0-5.85,7.34,50.13,50.13,0,0,0-5.45,15.71c-1,5-1.53,9.8-2.23,14.28a59,59,0,0,1-2.84,12.1c-2.66,6.93-7.23,10.23-14.58,10.54a58.35,58.35,0,0,1-12.36-1.19c-4.45-.78-9.19-1.8-14.29-2.46a48.74,48.74,0,0,0-16.75.35,30.24,30.24,0,0,0-8.76,3.39,30.86,30.86,0,0,0-7.32,5.93,47.42,47.42,0,0,0-8.55,14.49c-1.93,4.79-3.32,9.38-4.84,13.6a51.55,51.55,0,0,1-5.11,11.09,16.13,16.13,0,0,1-7.15,6.26A27.55,27.55,0,0,1,212,372.35c-4.18,0-8.78-.5-13.76-.76-5.29-.27-11.26-.35-17.55,1.42-.79.23-1.57.44-2.34.71l-2.32,1a28.84,28.84,0,0,0-4.39,2.41,13.35,13.35,0,0,0-2,1.45l-1.93,1.57c-1.2,1.1-2.28,2.3-3.38,3.48a62,62,0,0,0-8.78,15c-2.15,4.89-3.92,9.56-5.89,13.76A41.31,41.31,0,0,1,142.89,423a27.74,27.74,0,0,1-9.69,6.59,59.4,59.4,0,0,1-12.83,3.65c-4.63.87-9.51,1.49-14.56,2.18-3.6.5-7.32,1-11.47,1.94a66.87,66.87,0,0,0-11.76,3.86,53,53,0,0,0-10.71,6,39,39,0,0,0-8.63,8.42,38,38,0,0,0-2.33,3.71c-.61,1.25-1.09,2.49-1.52,3.61s-.58,2.28-.79,3.29a14,14,0,0,0-.2,2.81A9.83,9.83,0,0,0,59,473a2.91,2.91,0,0,0,1.16,1.67c.84.42,1.81-.5,2.81-2.34l.37-.74.5-.8c.33-.55.68-1.16,1-1.82a41.09,41.09,0,0,1,3-4.18c2.76-3.31,6.61-5.67,11.45-8.53A57,57,0,0,1,91.79,451a80.43,80.43,0,0,1,13.94-2.63c9.82-1.26,20.2-2,30.53-5.37a44.25,44.25,0,0,0,10.49-5,40.24,40.24,0,0,0,9.14-8.41,62.28,62.28,0,0,0,6.29-10.2c1.7-3.45,3.14-6.83,4.55-10.08,2.62-6.05,5.23-11.76,8.64-15.72a11.6,11.6,0,0,1,1.31-1.39A9.22,9.22,0,0,1,178,391l1.41-1.08c.52-.28,1-.56,1.53-.86a19.93,19.93,0,0,1,7-2,56,56,0,0,1,8.63-.07l9.89.8a78.8,78.8,0,0,0,11.23.09,36,36,0,0,0,12.44-3.23,28.84,28.84,0,0,0,9-6.58,38.79,38.79,0,0,0,6-8.55c3.07-5.86,4.75-11.56,6.47-16.8s3.32-10.13,5.57-13.92,4.95-6.33,8.56-7.64c4.41-1.72,10.52-1.15,16.92-.14,4.93.76,10.14,1.89,15.81,2.59a59.8,59.8,0,0,0,8.92.49,35.34,35.34,0,0,0,9.7-1.53,28.47,28.47,0,0,0,9.19-4.84,29.13,29.13,0,0,0,6.79-7.73c3.47-5.79,4.83-11.76,5.83-17.25s1.46-10.77,2.28-15.67,1.9-9.44,3.81-13a16.06,16.06,0,0,1,8.18-7.51c3.55-1.44,8-1.74,12.79-1.43,7.32.48,15.14,2.35,23.69,3.23a51.61,51.61,0,0,0,13.57-.17,28.14,28.14,0,0,0,13.61-6,25.53,25.53,0,0,0,5-5.49,31,31,0,0,0,3.34-6.25,56.8,56.8,0,0,0,3.23-12.52c1.24-8.07,1.52-15.83,3.32-22.51a19.19,19.19,0,0,1,4.18-8.27,11.83,11.83,0,0,1,3.42-2.57,4.26,4.26,0,0,1,1-.45l1-.4c.71-.21,1.44-.37,2.19-.53a31.71,31.71,0,0,1,10.21.57c3.68.66,7.54,1.64,11.72,2.22a38.24,38.24,0,0,0,8.27.33,25.47,25.47,0,0,0,8.49-2.3,26.25,26.25,0,0,0,7-5.21,37.5,37.5,0,0,0,4.9-6.66c5.34-9.26,7.56-19.11,12.29-27.06,9.36-16.21,26.63-27.81,45.23-30.82A77.06,77.06,0,0,1,565.81,133a48.35,48.35,0,0,0-11.17-2.14,22,22,0,0,0-3.1.17l-3.93.67c1.43-.27,2.9-.58,4.36-.81s2.81-.33,4.21-.54c1.86-.22,3.65-.33,5.42-.52s3.53-.08,5.34-.11a64.22,64.22,0,0,0-23.09,0c-.29.07-1.85.84-3.17,1.37-.91.39-1.9.8-2.92,1.2l-1.54.61-1.48.71c-1.47.95-3,1.77-4.37,2.86s-3,2-4.55,3.26c-.79.59-1.63,1.2-2.51,1.81l-2.67,2.1-1.47,1.09L517.69,146c-1,.88-2.16,1.67-3.24,2.7ZM350.27,260a26.55,26.55,0,0,1,9.94-2.12,8.49,8.49,0,0,1,1.88.24,34.63,34.63,0,0,0-9,1.52,25,25,0,0,0-4.83,2.13,14.91,14.91,0,0,0-1.93,1.41l-.94.76-.91.84a23.23,23.23,0,0,0-5.34,7.34,40.51,40.51,0,0,0-2.89,8.67c-.13,0-.39.14-.38.09a40.15,40.15,0,0,1,3.34-9.73,22.86,22.86,0,0,1,6.61-7.92c.4-.29.84-.58,1.28-.85l1.41-.7a4.41,4.41,0,0,1,1.78-1.68Zm80.17-54a17,17,0,0,1,3.91-3.86,25.64,25.64,0,0,0-3.43,4.41c-3.05,4.47-4.28,9.91-5.19,15.25s-1.43,10.82-2.45,16.22-2.54,10.82-5.76,15.4a22,22,0,0,1-13.66,8.86,41.59,41.59,0,0,1-12,.52c-4-.34-8-1-11.9-1.63-1.5-.26-3-.65-4.44-1,1.52.16,3,.27,4.56.52,3.91.63,7.83,1.27,11.78,1.61a40,40,0,0,0,11.77-.52,13.82,13.82,0,0,0,3.05-1.1,14,14,0,0,0,2.27-1.48c.6-.5-.26-.41-.45-.59a22.13,22.13,0,0,0,6-3.44c1.37-1.06,2.2-1.53,3.2-2.41a26.65,26.65,0,0,0,1.82-5.38c.2-1,.3-2,.42-3l.55-1.16a37.57,37.57,0,0,1-1.09,4.33c1.88-2.3,2.94-5.81,3.49-9.49s.74-7.61,1.27-11.16l-1,.24.24-1.62.75,1.53a110.48,110.48,0,0,1,1.95-10.89A30.53,30.53,0,0,1,430.44,206Zm31.17-4.53c-6-1.32-12-3.23-18.13-2.65a35.27,35.27,0,0,1,10.35.46c3.43.57,6.82,1.36,10.22,1.91,1,.18,2.15.38,3.21.53a24.38,24.38,0,0,0,11.14-.54c-3.86,1.62-8.25,1.69-11.89,1.41-2.22-.42-3.52-.8-4.9-1.12ZM324.41,320.7A28.16,28.16,0,0,0,330.62,309a80.84,80.84,0,0,0,2.21-11.36l.9-6.93c-.08,2.15,0,4.08-.26,6.51-.2,2-.49,4-.85,5.95a57.77,57.77,0,0,1-1.74,7.15,27.89,27.89,0,0,1-6.47,10.41Zm166.5-131.43a109.48,109.48,0,0,0,4.39-11.39,44.55,44.55,0,0,1,2.21-4.19c-1.06,3.38-2,6.77-3.4,10.68-.54.92-1.1,1.83-1.69,2.71s-1,1.5-1.51,2.2ZM264,320.56a29.58,29.58,0,0,1,9.51-1.44,69.36,69.36,0,0,1,13.79,2.34c-1.55-.18-3.11-.35-4.22-.46-6.45-1.24-12.69-1.93-19.08-.44Zm81.9-60.48a26.08,26.08,0,0,1,11.41-4.51,27.85,27.85,0,0,1,7.09.38,41.53,41.53,0,0,0-9.57,1,25.94,25.94,0,0,0-8.93,3.15Zm-.15-3.23a27.32,27.32,0,0,0-7.5,6.07,31.44,31.44,0,0,0-5,7.94c-.31.7-.63,1.4-1,2.1l-.94,2.12a43.52,43.52,0,0,1,2.41-6.27,31.17,31.17,0,0,1,3.56-5.66,26.8,26.8,0,0,1,8.4-6.3ZM268.64,322a20.76,20.76,0,0,1,4-.56A73.49,73.49,0,0,1,287,323.32c-2.6-.39-5.22-.8-8.89-1.08a44.35,44.35,0,0,0-9.48-.27Zm117-63.45c2.57.27,5.17.35,7.58.53a55.39,55.39,0,0,0,7.76.31,40.27,40.27,0,0,1-7.2.54c-3-.35-5.54-.84-8.14-1.38Zm86.16-60.8,1.12-.09,1.06-.22c.34-.08.7-.12,1-.21s.65-.2,1-.27a15.83,15.83,0,0,0,6.07-3,14.61,14.61,0,0,1-4.7,3.15,5.94,5.94,0,0,1-1.29.32c-.44.06-.87.21-1.34.23a17.6,17.6,0,0,1-2.92.08Zm-58.41,49.81c.23-.68.43-1.54.64-2a52.94,52.94,0,0,0,3.66-12c-.29,2.23-.57,4.46-1.29,7.72a30.64,30.64,0,0,1-3,6.31ZM331.51,284.7c-.26,1.4-.72,2.66-1.07,4,.24-2.29.45-4.58.92-7a39,39,0,0,1,2.22-6.57,50.47,50.47,0,0,0-1.4,5.83l-.67,3.74ZM352,254.1a32.45,32.45,0,0,1,6.92-1.32,41.23,41.23,0,0,1,6.43.23,51,51,0,0,0-6.92.3,36.44,36.44,0,0,0-6.43.79Zm151.31-94.86c.58-1.14,1.31-2.15,2-3.24a24.26,24.26,0,0,1,2.28-3.19,26.48,26.48,0,0,1,3.46-3.22c-1.13,1.28-2.05,2.74-3.24,4.32-.93.89-1.62,1.86-2.38,2.72s-1.49,1.69-2.09,2.61ZM173.12,382a35,35,0,0,0-3.67,2.8l-1.66,1.47c-.51.52-1,1.07-1.49,1.62.5-.66.94-1.39,1.51-2s1.09-1.21,1.67-1.78A27,27,0,0,1,180,378l-2.67,1.29a14.31,14.31,0,0,0-1.89,1.17c-1,.73-1.81,1.13-2.29,1.54ZM406.66,257.57a10.92,10.92,0,0,0,1.49-.93c.5-.29.93-.67,1.38-.95s1-.6,1.47-.9l.73-.43.68-.52-.54.67-.64.62-.69.69-.83.67a11.24,11.24,0,0,1-1.59.64,10.53,10.53,0,0,1-1.46.44Zm-78.77,33.74c.29-2,.68-4,1.09-6-.12,1.23-.13,2.37-.3,3.63-.29,2.23-.62,4.48-.95,6.66l-.28.21c.15-1.47.22-3,.44-4.49Zm2.82-8.41a19.14,19.14,0,0,1-.7,2.1c.32-2.09.66-4.21,1.21-6.37a26.39,26.39,0,0,1,1.34-3.45,72.3,72.3,0,0,0-1.85,7.72ZM211,380.53c-1.65,0-3.39.09-4.93,0s-2.62-.41-3.92-.64c1.73.08,3.46.19,5.95.27C208.8,380.23,209.87,380.42,211,380.53ZM420,236.39a50.55,50.55,0,0,1-2,8.9,16.57,16.57,0,0,1-1.37,2.85c.52-1.27.94-2.59,1-2.89a53.18,53.18,0,0,0,2.38-8.86Zm-46.23,17.47c1,.06,2,0,2.88.18,1.68.28,3.28.66,4.89,1l-4.15-.48ZM186.52,380.09a23.36,23.36,0,0,0-3.32.83l-1.63.52c-.54.17-1,.46-1.57.68a26.74,26.74,0,0,0-2.52,1,13.19,13.19,0,0,1,2.32-1.33l1.27-.64,1.42-.52a24.85,24.85,0,0,1,4-.53ZM424.85,217.9c-.19.95-.57,1.76-.82,2.63.22-1.53.48-3.06.83-4.59a34.89,34.89,0,0,1,2-5.58,55.89,55.89,0,0,0-2,7.54Zm10.24-21.43a22.84,22.84,0,0,0-5.44,3.6,6.74,6.74,0,0,1,1-1.12,21.27,21.27,0,0,1,3.37-2.33c.69-.34,1.43-.77,2.33-1.12a32.11,32.11,0,0,1,3.11-1.05,28.82,28.82,0,0,0-4.4,2Zm-14.75,26.72c-.12.69-.28,1.29-.42,1.94.14-1.21.29-2.43.48-3.65a17.24,17.24,0,0,1,.54-1.9l-.6,3.61Zm70.13-35.8a14.06,14.06,0,0,1-.75,1.88,11,11,0,0,1-1.48,1.53c-.14.07.49-1,.93-2.23.59-.55,1.13-1.2,1.3-1.18Zm15-29.14a15.64,15.64,0,0,1-1.46,1.58,4.74,4.74,0,0,1,.84-1.71,25.31,25.31,0,0,1,1.9-2c-.53.9-1,1.76-1.28,2.15Zm-95.6,94a7,7,0,0,1-1.27.6c.47-.45,1-.91,1.37-1.33a3.24,3.24,0,0,1,.57-.4l.68-.51a9.28,9.28,0,0,1-1.35,1.64Zm-95.38,70.85a19.63,19.63,0,0,0,3.32-1.45,6.71,6.71,0,0,1-.81.66c-.55.27-1.14.44-1.71.67s-1.22.36-1.89.52c.44-.14.75-.3,1.09-.4Zm19.91-47.47-1,2.73c.27-1,.46-2,.82-3a31,31,0,0,1,1.65-3.79c-.87,2-1.16,3.06-1.5,4Zm123.83-78.09c.71,0,1.4,0,2.18,0,0,0,1.32.38,1.27.39a7.69,7.69,0,0,1-1.22.26ZM303,323.76a8.19,8.19,0,0,1-1.4-.46c.6,0,1.3,0,1.76.08.73.06,1.31.24,2.64.4a23.66,23.66,0,0,1-3,0Zm95.18-66c.84-.12,1.7-.19,2.5-.33.37-.05.74-.08,1.11-.1l1.08-.14-1.05.3-1.14.24c-.92.08-1.73,0-2.5,0Zm-24.37-.7a3.32,3.32,0,0,1-1.25-.5,9.65,9.65,0,0,1,1.65.1c.81.15,1.48.34,2.74.67C375.47,257.15,374.51,257.14,373.82,257Zm-52.56,58.15c.23-.4.45-.78.72-1.19s.43-.62.65-.93a15.86,15.86,0,0,1-.8,1.66l-.57.46ZM439.79,93.79c-1.42.93-2.71,1.4-4,2.25a30.5,30.5,0,0,1,3.24-2.87,74.33,74.33,0,0,1,16-9.35c-1.34.38-2.63.93-3.94,1.43l-2,.77c-.65.27-1.28.59-1.92.88.59-.32,1.18-.66,1.79-1l1.87-.85c1.24-.55,2.42-1.19,3.57-1.64,1.35-.57,2.61-1.15,3.85-1.71l3.82-1.48-4.05.86c-1.33.37-2.67.76-4,1.22a68.27,68.27,0,0,0-13,6.17,71.58,71.58,0,0,0-23.49,22.54c-1.76,2.7-2.64,5.48-3.84,8.12-1.71,1.76-3.41,3.44-5.14,4.9l.12-.12a37,37,0,0,1-2.78,3.47,20.52,20.52,0,0,1-3,2.69,18.37,18.37,0,0,1-1.57,1,15.9,15.9,0,0,1-1.64.74,13.47,13.47,0,0,1-3.6.85,85.65,85.65,0,0,1-9.48.18,44.76,44.76,0,0,0-5.82.39,23.1,23.1,0,0,0-6.44,1.91c-.5.25-1,.47-1.47.76l-1.38.91c-.45.32-.92.61-1.35,1L369,139c-.39.39-.82.76-1.16,1.17l-1,1.28a17.69,17.69,0,0,0-1.72,2.63,39.76,39.76,0,0,0-3.76,10.43c-.78,3.29-1.34,6.39-2,9.23a31.2,31.2,0,0,1-2.59,7.47,14.53,14.53,0,0,1-8.1,6.88c-3.61,1.39-8,2.09-12.88,2.78s-9.87,1.2-15.27,2.25a49.88,49.88,0,0,0-16.72,6.08,43.23,43.23,0,0,0-12.9,13,134.23,134.23,0,0,0-7.87,14c-1.92,3.74-3.76,7.28-5.77,10.42a32.73,32.73,0,0,1-6.68,7.79,30.66,30.66,0,0,1-8.79,4.85,87.06,87.06,0,0,1-11.25,3.1c-4,.93-8.25,1.74-12.7,3a58.27,58.27,0,0,0-13.63,5.4,38.31,38.31,0,0,0-6.5,4.67c-1,1-1.94,1.93-2.89,2.92s-1.76,2.12-2.45,3.21a70.62,70.62,0,0,0-6.49,12.67,66.94,66.94,0,0,1-4.93,10.21,13,13,0,0,1-5.85,5.34c-2.29,1-5.44,1.26-9.17,1.13s-8-.68-12.7-.86a37.42,37.42,0,0,0-15.72,2.36,29.14,29.14,0,0,0-7.39,4.47,37.63,37.63,0,0,0-5.53,5.74,100.3,100.3,0,0,0-7.5,11.53,81.44,81.44,0,0,1-6.46,9.71c-10.19,13-25.07,22.88-39.82,33.58L46.66,389.21c-10.43,7.58-21.73,16-30.46,23.34-13.53,11.39-11.72,16,2,9.66a89,89,0,0,0,12.67-6.55C45.38,406.11,60.27,395,75,385.43c10.07-6.49,20.84-14.11,31.32-21.36,9.86-6.85,20.1-13.88,29.3-22.93A89.54,89.54,0,0,0,148.12,326c3.5-5.46,6.22-10.55,9.3-14.21a19.78,19.78,0,0,1,3.81-3.6,12.28,12.28,0,0,1,4.17-1.9,21.74,21.74,0,0,1,2.55-.5c1-.06,1.88-.19,3-.18,2.06-.07,4.39.08,6.83.22,4.89.28,10.49.87,16.89-.25A29.1,29.1,0,0,0,204.2,302a28.11,28.11,0,0,0,7.49-6.86,50.67,50.67,0,0,0,5.56-9.47c1.44-3.07,2.61-6,3.76-8.65,1.78-4.05,3.54-7.51,5.94-9.85a25.38,25.38,0,0,1,9.32-5.89,91.81,91.81,0,0,1,12.63-3.62c4.54-1.06,9.33-2,14.27-3.62a49.69,49.69,0,0,0,14.66-7.14,45.42,45.42,0,0,0,11.06-12.17c5.6-8.8,8.87-17.76,13.56-24.82a32,32,0,0,1,5.9-6.93,15.1,15.1,0,0,1,1.7-1.31l.86-.63.92-.55a25.37,25.37,0,0,1,4-1.88c5.74-2.18,12.62-3,19.75-4.2a99.45,99.45,0,0,0,10.93-2.31,39,39,0,0,0,11.18-5,29.19,29.19,0,0,0,4.93-4.29,27.38,27.38,0,0,0,3.69-5.37,41.72,41.72,0,0,0,3.7-11.29c.73-3.61,1.2-7.06,1.89-10.25a23.16,23.16,0,0,1,3-8.19,8.18,8.18,0,0,1,1.18-1.47l.63-.67.76-.54a9,9,0,0,1,3.4-1.65c2.62-.77,5.88-.82,9.45-.88a55.25,55.25,0,0,0,7.16-.49,23.15,23.15,0,0,0,7.53-2.44,25.92,25.92,0,0,0,6.23-4.69,43.18,43.18,0,0,0,4.6-5.7c2.68-3.92,4.77-7.93,7-11.65,1.08-1.88,2.32-3.52,3.47-5.3l2-2.48,1-1.24,1.07-1.17a69.55,69.55,0,0,1,44.44-22.42c2.15-.15,4.26-.45,6.39-.52a56.53,56.53,0,0,1,6.38-.08c-1.57-.49-3.1-1.1-4.72-1.51a44.49,44.49,0,0,0-5.23-1.09,35.46,35.46,0,0,0-6.34.34c2.58-.45,5.37-.48,7.75-.74l4.88-.27h4.8A67.38,67.38,0,0,0,468,79.71c-.27,0-1.7.72-2.92,1.08-1.71.44-3.68,1.15-5.52,1.74-2.79,1.41-5.43,2.91-8.52,4.69l-1.2.65-1.22.74c-.83.49-1.71,1-2.65,1.5s-1.87,1.14-2.9,1.73-2.13,1.21-3.24,2ZM289.45,218.68c1.15-2.55,2.61-5.32,4.1-8a9.63,9.63,0,0,1,1.09-1.3c-1.3,2.41-2.41,4.87-3.57,7.34l-2,4.26c-.57,1.31-1.06,2.63-1.76,4A56.48,56.48,0,0,1,278,238.77c-.12,0-.38-.09-.35-.12,4.31-4.48,7.45-9.88,10.2-15.41.4-.79.93-1.6,1.39-2.4a4.55,4.55,0,0,1,.25-2.16Zm77-61.24a47.86,47.86,0,0,1,1.29-4.73c-.28,1.67-.3,3.37-.64,5-1,4.79-1.77,9.69-3.56,14.35a24.45,24.45,0,0,1-3.75,6.44,22.18,22.18,0,0,1-5.7,4.83c-4.3,2.57-9.2,3.81-14,4.7s-9.75,1.41-14.58,2.22c-7,1.18-14.18,3-19.79,7.41-.57.37-1.09.81-1.62,1.23l-1.6,1.25,1.42-1.48a8.14,8.14,0,0,1,1.54-1.39l2.17-1.58c.77-.45,1.53-.93,2.33-1.32a34,34,0,0,1,4.95-2.07,70.52,70.52,0,0,1,10.36-2.54,32.12,32.12,0,0,0,5.26-1.54c.69-.26-.11-.47-.24-.7,2.26-.07,4.8-.22,6.63-.2a30.94,30.94,0,0,1,3.66.38q2.42-.9,4.76-2c.8-.44,1.59-.88,2.34-1.37.38-.05.77-.11,1.14-.19-1.19.59-2.44,1.1-3.7,1.59a15.35,15.35,0,0,0,8.67-2.66,23.57,23.57,0,0,0,6.89-7.12l-.95-.25.7-1.18c.07.5.14,1,.2,1.55a30.08,30.08,0,0,0,3.74-9c.83-3.18,1.41-6.43,2.11-9.67Zm19.79-18.58a24.47,24.47,0,0,0-8.08,1.19,14.53,14.53,0,0,0-6.54,4.8,15,15,0,0,1,7.4-5.5,33.06,33.06,0,0,1,9.31-1.29c.95,0,2,0,2.95,0,3.38,0,6.81-.06,10-1.25-3.39,1.62-7.3,2-10.54,2.22-2-.09-3.22-.18-4.48-.17ZM243,252.34l11.57-2.93a93.48,93.48,0,0,0,9.93-3.09,44.84,44.84,0,0,0,5.64-2.69,28.07,28.07,0,0,1-5,3.08,79.21,79.21,0,0,1-11.44,3.57L243,252.34ZM412.78,126.17c1.8-3.17,3.23-6.41,5-9.84a24.89,24.89,0,0,1,2.67-3.38c-1.53,2.83-2.76,5.75-4.37,9.13-1.06,1.39-2.17,2.76-3.32,4.09ZM204,287.58c1.23-2,2.2-4.41,3.21-6.39,1.8-3.57,3.52-7.1,5.55-10.74-.52,1.34-1,2.68-1.35,3.61-2.56,5.29-4.61,9.9-7.41,13.52Zm82.19-66.89c1.27-3,2.33-6,3.94-9.13a35.07,35.07,0,0,1,3.58-5c-.74,1.31-1.43,2.64-2.08,3.89L290,214l-3.74,6.73Zm-2.06-2.29a87.44,87.44,0,0,1-6.39,11.35,19.79,19.79,0,0,1-2.15,2.33,55.76,55.76,0,0,0,4.76-7.57q2-3,3.78-6.11ZM207.74,286c.48-1,.83-2.24,1.31-3.19,1.86-3.77,3.5-7.72,5.47-11.57-1,2.19-1.83,4.4-3,7.44A74.84,74.84,0,0,1,207.74,286Zm100.15-93.9a31.11,31.11,0,0,1,7-3.27,45.88,45.88,0,0,1,7.81-1.45,71.41,71.41,0,0,0-7,2,39.31,39.31,0,0,0-7.8,2.68ZM395,133.6a26.48,26.48,0,0,0,3.77-1,15.42,15.42,0,0,0,5.39-2.81,16,16,0,0,1-4.16,2.95,17.2,17.2,0,0,1-5,.82ZM341.52,181c.71-.25,1.51-.68,2-.78a25.54,25.54,0,0,0,9.33-3.63,19.59,19.59,0,0,1-4.93,3.13,42,42,0,0,1-6.41,1.28Zm-69.09,57.55a22.84,22.84,0,0,1-2.88,1.45,39.52,39.52,0,0,0,4.12-3.44c.36-.33.81-.6,1.39-1.15l1.07-.92a12.42,12.42,0,0,0,1.43-1.38,21.92,21.92,0,0,1-1.62,2,19.32,19.32,0,0,1-1.32,1.48c-.85.78-1.49,1.42-2.19,1.95Zm13.78-24.65c.74-1.62,1.52-3.32,2.4-4.93.43-.79,1-1.57,1.45-2.33s1-1.54,1.59-2.28c-.52.84-1,1.68-1.42,2.54s-1,1.75-1.39,2.68q-1.38,2.21-2.63,4.32Zm142-112.64c.75-.86,1.52-1.68,2.29-2.53a21.5,21.5,0,0,1,2.5-2.45A27.15,27.15,0,0,1,436.53,94c-1.16,1-2.21,2.13-3.49,3.36-1.85,1.36-3.34,2.66-4.87,3.91ZM119.78,341.7c-2,1.52-4,2.7-6,4,1-.85,2-1.8,3-2.53,2-1.55,4-3,7.41-5.78a52.22,52.22,0,0,1-4.43,4.34ZM328.84,186a35.22,35.22,0,0,1,3.62-.83c1.27-.17,2.44-.11,3.64-.16l-3.84.95-3.42,0Zm-62.35,53.15c.66-.35,1.34-.68,2-1l1.88-1.14a15,15,0,0,1-2.05,1.66l-2.25,1.22-2.47,1-.28-.15,1.6-.82c.54-.26,1.07-.52,1.55-.81Zm6.19-2.31a4.48,4.48,0,0,1-1.45.76,15.84,15.84,0,0,0,1.75-1.53l.87-.78c.27-.27.53-.58.8-.87s.89-.65,2-1.74c-.82,1.1-1.59,1.81-2.18,2.52a23.14,23.14,0,0,1-1.8,1.64ZM143.7,319c-.69,1.3-1.37,2.7-2.15,3.87a31.78,31.78,0,0,1-2.29,2.75c.84-1.31,1.72-2.6,2.84-4.54l1.6-2.08Zm209.36-139a26.74,26.74,0,0,1-7,3.37,21.43,21.43,0,0,1-2.87.6c.91-.28,1.81-.58,2.7-.91a27.88,27.88,0,0,0,7.2-3.06Zm-56.63,18a18.44,18.44,0,0,1,1.8-2.32,30.15,30.15,0,0,1,4.16-3.3,28.49,28.49,0,0,0-3.26,3,29.89,29.89,0,0,0-2.7,2.62ZM130.26,336.48c-1.4,1.54-2.83,3.06-4.37,4.52a23.1,23.1,0,0,1-2,1.49c1.12-1.16,2.25-2.3,3.51-3.69C128.52,338,129.38,337.2,130.26,336.48Zm232.87-168a10.41,10.41,0,0,1-1,2.12c.43-1.23.7-2.53,1.06-3.8.2-.9.54-1.75,1.32-4.87a50,50,0,0,1-1.35,6.55Zm1.34-20.08-.91,2.47-.75,2.41a6.83,6.83,0,0,1,.15-1.16l.38-1.44.55-1.64a16.82,16.82,0,0,1,.78-2,20.45,20.45,0,0,1,1.23-2.53,17.3,17.3,0,0,0-1,2.61c-.2.57-.32.94-.44,1.28Zm-6.29,23.27a6,6,0,0,1-.77,1.16c.43-.69.7-1.56,1.08-2.34l.7-1.27a17.91,17.91,0,0,1-1,2.45Zm54.22-47.31a8.38,8.38,0,0,1-.79,1.66,8.69,8.69,0,0,1-1.45,1.28c-.12.06.47-.93.95-2,.6-.43,1.12-1,1.29-1Zm18-23.52a8.48,8.48,0,0,1-1.59,1.1c-.14,0,.66-1,1-1.36a21.92,21.92,0,0,1,2-1.45C431.23,99.84,430.72,100.54,430.37,100.84Zm-95.49,81.43a10.1,10.1,0,0,1-1.73-.09c.81-.15,1.65-.37,2.38-.46a14.63,14.63,0,0,1,1.88,0,22.68,22.68,0,0,1-2.53.55ZM233.07,252l1.85-.7,1.86-.58a6.22,6.22,0,0,1-1,.52c-1.25.34-2.48.81-3.87,1.26.45-.2.79-.36,1.14-.5Zm45.16-18.16a13,13,0,0,1-1.6,1.63c.53-.6,1-1.22,1.52-1.88s1.07-1.14,2.05-2.5a28.6,28.6,0,0,1-2,2.75Zm104-97.81a20.31,20.31,0,0,1,2-.67,9,9,0,0,1,1.3,0,9.22,9.22,0,0,1-1.07.56c-1.15,0-1.7,0-2.27.07ZM222.07,257.7c-.59.4-1,.44-1.37.72a9.34,9.34,0,0,1,1.41-1.26,25.6,25.6,0,0,1,2.47-1.48c-1.35,1-2.09,1.77-2.5,2Zm97.52-71.64c.9-.26,1.81-.49,2.73-.68s1.66-.21,2.48-.3l-2.47.6c-1,.14-1.88.23-2.74.38Zm-20.52,13.56a3.08,3.08,0,0,1-1.07.71,9.26,9.26,0,0,1,.95-1.26,13.44,13.44,0,0,1,2.07-1.76c-1,1-1.47,1.84-1.95,2.31ZM243.75,246c.54-.17,1.05-.35,1.63-.5.39-.1.87-.15,1.31-.22l-2.06.71ZM-8,315.07c1.12-1.4,2.15-2.38,3.19-3.57-.73,1.31-1.39,2.53-2.29,3.91a60.34,60.34,0,0,1-6,7.75,58.08,58.08,0,0,1-7.31,6.78c1.27-.79,2.43-1.74,3.66-2.61s2.33-1.89,3.44-2.9c-1,1-2.12,2-3.17,3l-3.23,2.7c-1.26.94-2.36,1.95-3.59,2.77l-1.79,1.28c-.61.42-1.26.78-1.91,1.18a44,44,0,0,0,8-4.27A59.65,59.65,0,0,0-7.7,320.69c.92-1.13,1.86-2.3,2.71-3.43s1.67-2.26,2.45-3.39l4.71-6.75a156.42,156.42,0,0,1,9.5-12.69c1.94-2.32,3.52-4.64,5.49-6.75a31.35,31.35,0,0,1,3.3-1.43l1.64-.59c.56-.17,1.12-.29,1.66-.44l-.16.06a27.18,27.18,0,0,1,8.5-3,59.52,59.52,0,0,1,9.78-.64c3.47,0,7.12.09,11-.12a40.32,40.32,0,0,0,12.22-2.31,26.76,26.76,0,0,0,5.62-2.9,19.36,19.36,0,0,0,2.53-2l1.21-1.07c.38-.37.71-.77,1.06-1.17a35.68,35.68,0,0,0,6.27-10.06c3-6.81,4.56-13.31,7.08-18.5a23.44,23.44,0,0,1,3.51-5.43A14.32,14.32,0,0,1,96.68,235c3.14-1.41,7.25-1.64,12.2-1.41s10.14.93,16.12,1a45.19,45.19,0,0,0,9.6-.82,28.41,28.41,0,0,0,10.09-4.16,27.49,27.49,0,0,0,7.74-7.94,39.8,39.8,0,0,0,4.18-9.1c1.9-6,2.68-11.48,3.72-16.48a43.83,43.83,0,0,1,3.26-10.82,10.61,10.61,0,0,1,5.5-5.39,14.92,14.92,0,0,1,4.25-.89,39.52,39.52,0,0,1,5.64,0c4.14.22,8.89.89,14.42.53a36.45,36.45,0,0,0,4.25-.52,31.05,31.05,0,0,0,4.37-1.18,30.41,30.41,0,0,0,7.95-4.22,46.42,46.42,0,0,0,10.79-11.92c2.73-4.1,4.94-8.11,7.16-11.8a59.94,59.94,0,0,1,6.85-9.69,23.22,23.22,0,0,1,3.76-3.36,15.77,15.77,0,0,1,2-1.21c.74-.29,1.39-.68,2.16-.95A36,36,0,0,1,253.5,133c4.09-.15,8.53,0,13.31-.08a53.84,53.84,0,0,0,15.5-2.17,26.37,26.37,0,0,0,4.08-1.61l2-1a21.38,21.38,0,0,0,1.91-1.23,28,28,0,0,0,6.66-6.06,51.52,51.52,0,0,0,7.54-13.89c1.73-4.48,3.08-8.73,4.62-12.46s3.26-6.82,5.21-8.63a9.53,9.53,0,0,1,3.42-2.14,14,14,0,0,1,4.39-.69,39.71,39.71,0,0,1,5.87.56l7,1.27a58.48,58.48,0,0,0,8.27,1,29.23,29.23,0,0,0,9.76-1.26,21.08,21.08,0,0,0,2.49-1l1.23-.55c.4-.2.77-.45,1.16-.69.76-.47,1.52-.94,2.25-1.46s1.36-1.15,2-1.74A28.84,28.84,0,0,0,368,71.17a55,55,0,0,0,3.22-7.73c.86-2.47,1.54-4.75,2.27-6.94,1.42-4.28,2.94-8,4.89-10.3s4.54-4,8.12-5.11a52.25,52.25,0,0,1,12.23-2c6.48-.46,14.27-.48,22.39-3a36.74,36.74,0,0,0,6-2.41c.49-.22,1-.52,1.44-.78s.93-.52,1.44-.88l1.46-1,1.34-1.1a27.22,27.22,0,0,0,7.42-10.37c2.38-5.89,1.76-11.61,0-14.91s-3.8-4.35-4.67-4.2-1,1.49-.95,3.53a18.75,18.75,0,0,1-1.43,8.22c-1.58,3.59-4.6,6.68-8.45,9.27l-1.15.67-1.31.63-1.37.57-1.41.5a38.52,38.52,0,0,1-6.1,1.38,134.7,134.7,0,0,1-13.7,1A75.23,75.23,0,0,0,384.54,28a33.13,33.13,0,0,0-14.9,7.59,32.15,32.15,0,0,0-6.77,9.58,91.47,91.47,0,0,0-3.88,10,67.74,67.74,0,0,1-3.38,8.67,13.84,13.84,0,0,1-4.29,5.42A10.09,10.09,0,0,1,345.88,71a32.65,32.65,0,0,1-7.73-.79c-2.91-.55-6.06-1.3-9.57-1.85a36.77,36.77,0,0,0-11.82-.17c-.54.09-1.08.16-1.62.29L313.5,69c-.54.17-1.09.32-1.62.52l-1.56.67a25.7,25.7,0,0,0-5.75,3.65,30.33,30.33,0,0,0-4.45,4.75,40.89,40.89,0,0,0-3.18,5,80.37,80.37,0,0,0-4.23,9.7c-1.15,3.08-2.18,6-3.28,8.71-1.78,4.47-3.81,8.19-6.23,10.5a17.87,17.87,0,0,1-4.23,2.8,25.48,25.48,0,0,1-5.74,1.55c-4.3.72-9.34.69-14.79.77s-11.39.27-17.69,2a39.93,39.93,0,0,0-5.8,2.15,30.29,30.29,0,0,0-5.5,3.16,40.82,40.82,0,0,0-8.44,8.36,122.36,122.36,0,0,0-8.52,13.48A79,79,0,0,1,205,158.17c-2.67,3.17-5.49,5.26-8.8,6.18s-7.64.81-12.55.47c-2.49-.18-5.16-.37-8-.34a34.27,34.27,0,0,0-9.19,1.17,24.93,24.93,0,0,0-9,4.79,25.74,25.74,0,0,0-6.16,7.8c-2.9,5.63-3.93,11.1-4.91,16.13a125.76,125.76,0,0,1-3,13.94,21,21,0,0,1-4,7.8,13.45,13.45,0,0,1-6.7,4,34.75,34.75,0,0,1-9.59.78c-3.53-.1-7.29-.43-11.24-.58a55.53,55.53,0,0,0-12.42.71,26.27,26.27,0,0,0-12.51,5.88,30.81,30.81,0,0,0-7.78,10.78,89.38,89.38,0,0,0-4,11.08c-2.13,7-4.21,13.71-8.45,17.79a17.5,17.5,0,0,1-7.81,4.29,44.18,44.18,0,0,1-10.16,1.28c-4.55.18-9.36.11-14.37.68a38,38,0,0,0-14.78,4.67A49.17,49.17,0,0,0,7.73,287a107.74,107.74,0,0,0-9.08,11.45l-8,11.67-2,2.82-2,2.63-2.19,2.52L-18,320.49a51.87,51.87,0,0,1-10.61,7.93,30.32,30.32,0,0,1-12,4,19.61,19.61,0,0,1-11.84-2.24,16.67,16.67,0,0,0,8.82,5.28c1.14.4,4.43.14,6.69-.27a24.26,24.26,0,0,1-4.18.53,28.52,28.52,0,0,1-4-.06A23.46,23.46,0,0,1-55,332.49a22.47,22.47,0,0,0,10.16,4.89,27.07,27.07,0,0,0,11.64-.33,5.51,5.51,0,0,0,1.17-.56c.55-.33,1.22-.72,1.84-1,.89-.39,1.79-.91,2.73-1.42l1.41-.76,1.33-.86a84.44,84.44,0,0,0,7.53-7.1c2.64-2.72,5.63-5.87,9.19-10.27ZM153.45,195.41c-.48,3.11-1.07,6.21-1.75,9.28a10.91,10.91,0,0,1-.68,1.66c.55-2.84.95-5.67,1.37-8.53.24-1.61.53-3.27.83-4.9a42.48,42.48,0,0,1,.8-4.54,33.48,33.48,0,0,1,3.18-8.22,21,21,0,0,1,2.62-3.62,17.66,17.66,0,0,1,3.45-2.88c.12.07.37.18.33.2a18.52,18.52,0,0,0-6.49,7.23,38.57,38.57,0,0,0-3.21,9.23c-.2.92-.53,1.88-.77,2.83a5.28,5.28,0,0,1,.32,2.26Zm-76.11,62.7a25.31,25.31,0,0,1-1.08,2.37,22.93,22.93,0,0,1-1.21,2.3,21.18,21.18,0,0,0,.85-2.55c.27-.85.54-1.7.84-2.53C78.64,252.88,80,247.84,82,243a42.8,42.8,0,0,1,3.51-7l1.17-1.6.59-.79.69-.72c.46-.48.9-1,1.37-1.44l1.57-1.23A19.43,19.43,0,0,1,98,226.75a32.83,32.83,0,0,1,7.81-1c5.24-.13,10.43.52,15.61.78a45.62,45.62,0,0,0,11.27-.53,20,20,0,0,0,9.89-4.93,26.23,26.23,0,0,0,3-3.1,16.46,16.46,0,0,1-2.65,3.47,20.28,20.28,0,0,1-10.05,5,49.1,49.1,0,0,1-11.28.61,36.13,36.13,0,0,0-5.78.34c-.77.11,0,.48.09.74L108.94,227c-1.68-.32-2.51-.68-3.74-1a35.56,35.56,0,0,0-5.22,1.46,23.65,23.65,0,0,0-2.51,1.28c-.39.06-.78.11-1.18.19a24.55,24.55,0,0,1,3.92-1.48,12.45,12.45,0,0,0-9,3,25.15,25.15,0,0,0-6.42,8.33l1,.16a10.2,10.2,0,0,0-.69,1.31c-.1-.52-.22-1.08-.27-1.6-3.28,6.11-4.87,13-7.51,19.53ZM53.06,275.58a37.32,37.32,0,0,0,8.59-1.4,20.81,20.81,0,0,0,7.6-4.17,21.53,21.53,0,0,1-8.56,4.83,43.54,43.54,0,0,1-9.82,1.63c-1,.08-2.09.09-3.12.08-3.63,0-7.23-.11-10.82.07,4-.53,8-.73,11.39-1,2.12,0,3.41.09,4.74,0ZM202.33,168.83a22.23,22.23,0,0,1-5.77,2.27,32.7,32.7,0,0,1-6.24.72c-3.66.09-7.34-.28-11-.43a48.72,48.72,0,0,0-6.62.09,30.14,30.14,0,0,1,6.17-.7c1.78,0,3.64.13,5.7.25a62.77,62.77,0,0,0,6.85.12,28.89,28.89,0,0,0,5.16-.41,21.72,21.72,0,0,0,5.75-1.91ZM20.94,281.53a48.49,48.49,0,0,0-8.48,7.71c-.65.74-2.25,1.86-3.35,2.91a53.61,53.61,0,0,1,6.92-8,27.24,27.24,0,0,1,2.63-1.5,18.79,18.79,0,0,1,2.28-1.09ZM242.23,130.27a11.7,11.7,0,0,0-1.72.7l-1.62.86c-1.07.56-2,1.26-2.9,1.82a38.62,38.62,0,0,0-8.47,7.93c.65-1.08,1.34-2.13,2.06-3.15a30.71,30.71,0,0,1,6-5.29,18.85,18.85,0,0,1,3.23-1.7l1.66-.67c.54-.23,1.16-.32,1.74-.5Zm-86.18,62.2c-.49,3.33-.69,6.63-1.33,10.31a37,37,0,0,1-2.07,6.17c.73-3.13,1.21-6.22,1.57-8.64.74-3.27,1.24-5.58,1.83-7.84Zm2.58,1.73c.9-4.54,2.05-8.77,4-11.8a8.45,8.45,0,0,1,1.91-1.87,14.61,14.61,0,0,0-2.16,3.15,26.24,26.24,0,0,0-1.51,3.77,52.7,52.7,0,0,0-2.28,6.75Zm79.52-64.79a10.7,10.7,0,0,0-1.52,1l-1.41,1a36.82,36.82,0,0,0-9.28,9.15,43.46,43.46,0,0,1,5.12-6.49A24.58,24.58,0,0,1,238.15,129.41ZM140.29,227a22.82,22.82,0,0,1-8,3,35.89,35.89,0,0,1-8.6,0,49.11,49.11,0,0,0,7.81-.72,25.57,25.57,0,0,0,8.81-2.29ZM43.42,280.91c-1.72.12-3.41.33-5,.41a47.51,47.51,0,0,0-7.69.75,37,37,0,0,1,6.17-1.22q3.27-.06,6.53.06Zm59.9-48.36c-.71.15-1.5.5-2,.55a17.91,17.91,0,0,0-4.69,1.22,8.08,8.08,0,0,0-1,.49,6.5,6.5,0,0,0-1,.6l-1,.64a9.59,9.59,0,0,0-.89.8,9.94,9.94,0,0,1,.81-.91l1-.83a10.91,10.91,0,0,1,2.67-1.73,20.87,20.87,0,0,1,6.06-.83Zm65.25-57.13a5.61,5.61,0,0,1,1.58-.25,14.29,14.29,0,0,1,1.61,0,15.49,15.49,0,0,0-4.88,1.73,5.65,5.65,0,0,1-.67.29l-.84.42a13.1,13.1,0,0,0-2.59,1.73,14.35,14.35,0,0,1,3.23-2.74l1.31-.71c.43-.17.84-.3,1.25-.44Zm-10.69,23.84c-.28,1.84-.51,3.76-.93,5.66a49.75,49.75,0,0,1-1.65,5.64c.51-2,.91-4,1.27-6.17.44-1.75.88-3.44,1.31-5.13ZM1.53,304.36c-1.19,2-2.26,4-3.62,6.07a37.8,37.8,0,0,1-2.83,3.32l2.47-4.35ZM330,78.92c2.61.61,4.91,1.39,7.51,2-1.49-.18-3-.36-4.28-.63L329,79.37a52.55,52.55,0,0,0-5.38-.93c1.72,0,3,.08,4.07.18A13.2,13.2,0,0,1,330,78.92Zm-213,151c-1.33,0-2.7.13-3.9,0s-2.51-.4-3.74-.57c1.22-.08,2.46-.12,4.11-.17l3.53.71Zm57.28-52.85a26.27,26.27,0,0,0-4.35.43l1.14-.44a11.88,11.88,0,0,1,1.3-.28,30,30,0,0,1,5.51-.13l.21.26C176.75,176.92,175.48,177,174.27,177.08Zm-6.43-.23a8.94,8.94,0,0,1,1.51-.2,16,16,0,0,0-3.75,1.91c-.35.3-.86.42-2,1.24A12.73,12.73,0,0,1,167.84,176.85ZM301.91,90.5a29,29,0,0,1,1.88-4.32,17.41,17.41,0,0,1,2.32-3,33,33,0,0,0-2.78,5c-.38.6-.92,1.49-1.42,2.4Zm-209.66,143a15.94,15.94,0,0,1,6.86-3.66,14.58,14.58,0,0,1,2.93-.38,21.17,21.17,0,0,0-2.77.7,17.21,17.21,0,0,0-4.1,1.44c-.58.25-1.06.6-1.57.87l-1.35,1Zm59.8-14.76a16.42,16.42,0,0,1-1.54,3,22.66,22.66,0,0,1-4.19,4.46,25.62,25.62,0,0,0,3.32-3.89A30.24,30.24,0,0,0,152.05,218.73ZM318.48,75.11a24.81,24.81,0,0,1,3.34-.44c1.11,0,2.25-.07,3.38,0a16.91,16.91,0,0,1,2.6.53,38.94,38.94,0,0,0-5.4-.08,18.88,18.88,0,0,0-2.06-.11l-.94,0-.92.07ZM82.21,246.78a17.77,17.77,0,0,1,1.16-2.26L82,248.6c-.31.92-.71,1.84-1.94,5.07,1.2-4,1.58-5.49,2.11-6.89Zm-5,21.08c.27-.4.56-.79.82-1.18l.7-1.2c.45-.79,1-1.58,1.33-2.39a5.6,5.6,0,0,1-.39,1.2,32.26,32.26,0,0,1-4.82,7.22,34.47,34.47,0,0,0,2.36-3.65Zm10.17-24.73c.26-.51.55-.95.82-1.42-.4.92-.81,1.83-1.18,2.82a15.61,15.61,0,0,1-.82,1.45c.52-1.26.82-2.11,1.18-2.85Zm-67,40.2c-.08-.08.95-.76,1.49-1.17a8.31,8.31,0,0,1,1.94-.54c.08,0-.16.14-.51.4l-1.29,1a7.74,7.74,0,0,1-1.63.31Zm-21,21.89a6.82,6.82,0,0,1,1.38-1.46A5.65,5.65,0,0,1,0,305.35a25.14,25.14,0,0,1-1.71,1.93,20.5,20.5,0,0,1,1.11-2.06Zm110.62-72.9a10.26,10.26,0,0,1,1.72.43c-.85,0-1.74,0-2.47,0a18.59,18.59,0,0,1-1.87-.34A22,22,0,0,1,110.05,232.32ZM212.2,164.86a35,35,0,0,1-3,3.09,10.2,10.2,0,0,1,.74-1A43.72,43.72,0,0,0,213,163.8c-.32.42-.55.74-.82,1.06Zm-50,13.68a11.61,11.61,0,0,1,1.73-1.34,22.9,22.9,0,0,0-1.67,1.6c-.24.28-.5.55-.83.89s-.71.8-1.17,1.47a15.16,15.16,0,0,1,1.94-2.62ZM57.42,278.28c-.67.26-1.33.49-2.09.74a9,9,0,0,1-1.36,0,11.73,11.73,0,0,1,1.1-.62l2.35-.15ZM219.74,154.66a8.65,8.65,0,0,1,1-1.09c-.28.54-.58,1.18-.85,1.59-.43.64-.83,1.11-1.71,2.23C219,156,219.46,155,219.74,154.66Zm-93.1,77.21c-1,0-2,.13-3,.1s-1.79-.15-2.66-.24c.9,0,1.81,0,2.71-.06C124.78,231.77,125.71,231.82,126.64,231.87Zm22.45-14.2a3.53,3.53,0,0,1,.9-1,7.55,7.55,0,0,1-.7,1.58,17.91,17.91,0,0,1-1.85,2.36C148.31,219.22,148.68,218.29,149.09,217.67Zm53.55-42.32c-.65.33-1.31.59-2,.87a12.38,12.38,0,0,1-1.72.4l1.33-.47,1.3-.58a9.64,9.64,0,0,0,1.12-.22ZM73.56,151.77c-.47.33-.9.54-1.38.82a6.72,6.72,0,0,1,.65-1.39,17.54,17.54,0,0,1,4.73-4.59,21.74,21.74,0,0,0-2.77,1.3c.75-.64,1.65-1.15,2.39-1.71s1.66-1.27,2.6-1.8a12.92,12.92,0,0,0-3.13.73,18.12,18.12,0,0,0-4.67,3,19.83,19.83,0,0,0-4,5,15.6,15.6,0,0,0-2,6.31,4.55,4.55,0,0,0,.22,1.91c.2.61.4,1.19.65,1.76-.23.51-.47,1.05-.66,1.61s-.34,1.12-.49,1.71v-.09a21,21,0,0,0,10.39,13.65,18.76,18.76,0,0,0,8.44,2.22,22.89,22.89,0,0,0,8.4-1.47c4.3-1.59,8.27-3.8,11.12-7.4a25.35,25.35,0,0,0,3.45-5.77,26.22,26.22,0,0,0,1.84-6.55,29.62,29.62,0,0,0-1.11-13.08,31.29,31.29,0,0,0-13-17A27.57,27.57,0,0,0,84.6,127a29.54,29.54,0,0,0-11.07.51,31.6,31.6,0,0,0-18,11.62,28,28,0,0,0-4.87,10.19,28.85,28.85,0,0,0-.46,11.16,32,32,0,0,0,11.29,19.9A20.6,20.6,0,0,0,64,182.11a27.64,27.64,0,0,0,5.46,2.77,20.67,20.67,0,0,0,3.14,1,25.53,25.53,0,0,0,12.67-.47A22.62,22.62,0,0,0,93.48,181a17,17,0,0,0,5.41-8,8.09,8.09,0,0,0-.11-5.53,3.05,3.05,0,0,0-2.28-1.93,4.39,4.39,0,0,0-2.69.8,14.17,14.17,0,0,0-1.34.94,17.37,17.37,0,0,0-1.41,1.07c-1.18.8-2.46,1.12-3.46,1.83a15.61,15.61,0,0,1-5.53,2.7,9.74,9.74,0,0,1-6.14-.3,29.52,29.52,0,0,1-3.54-2.05,15.83,15.83,0,0,1-3.19-3,17.23,17.23,0,0,1-3.39-7.43,15.8,15.8,0,0,1,.32-7.36,16.45,16.45,0,0,1,2.58-5.28,15.71,15.71,0,0,1,5-4.32,14.43,14.43,0,0,1,4-1.27,13.26,13.26,0,0,1,11.45,2.42,17.29,17.29,0,0,1,6.46,11.25,12.41,12.41,0,0,1-.26,4.87,15.71,15.71,0,0,1-1.78,4.45,13.43,13.43,0,0,1-7,6.17,9.39,9.39,0,0,1-2.21.48c-.37,0-.72,0-1.1,0s-.74-.08-1.11-.14a9.9,9.9,0,0,1-4.34-2.15A11.6,11.6,0,0,1,74.21,164a10.66,10.66,0,0,1-.48-3.1,9.64,9.64,0,0,1,.59-3,12.57,12.57,0,0,1,10.35-7.56,29,29,0,0,1,3.45-.34,8.33,8.33,0,0,0-2.6-2.67,2.11,2.11,0,0,0-.89-.17c-.39,0-.81,0-1.17,0,.85-.16,1.75-.09,2.54-.2.55,0,1.1-.08,1.64-.15h1.67a14.47,14.47,0,0,0-7.26-2.26c-.11,0-.58.49-1,.69l-1.89.9L78,147.5a17,17,0,0,1-1.18,1.37,22.48,22.48,0,0,1-3.22,2.9Zm28.15-1.58a11.63,11.63,0,0,1,.77,2.88c0,.19-.12.4-.19.6a20.26,20.26,0,0,0-.93-2.54c-.2-.47-.34-1-.58-1.43a9.45,9.45,0,0,1-.76-1.21c-.4-.79-.83-1.56-1.28-2.32A23.86,23.86,0,0,0,97.22,144c.09-.08.24-.25.25-.24a24.45,24.45,0,0,1,1.73,2.44,22.67,22.67,0,0,1,1.37,2.69,4.27,4.27,0,0,1,.2.89c.32.11.81.06.94.4ZM85.12,176.53a7.14,7.14,0,0,1-1.6-.19c.57-.11,1.1-.51,1.63-.51a15.53,15.53,0,0,0,8.59-3.19,19.75,19.75,0,0,0,5.92-7.13,17.63,17.63,0,0,0,1.17-3.21c.12-.55.27-1.1.38-1.66l.23-1.69c.08-.43.2-.86.31-1.29a4.68,4.68,0,0,1,.16,1.34l-.22,1.72c-.11.57-.27,1.13-.4,1.7a22.21,22.21,0,0,1-1.14,3.27,4.62,4.62,0,0,0-.21,1.93c0,.29.42.23.65.33a10,10,0,0,1-1.89,1.46,3.8,3.8,0,0,1-1.51.3,14.89,14.89,0,0,1-.47,1.83c-.07.36-.13.74-.22,1.09l-.45.13a12.16,12.16,0,0,0,.75-1.25,3.64,3.64,0,0,0-1.55.44,8.51,8.51,0,0,0-1.24,1A10,10,0,0,1,91.42,175l.52.79-.46.23c0-.35,0-.71,0-1.06a14.79,14.79,0,0,1-6.33,1.56Zm-8.86-3.67a13.64,13.64,0,0,0,4.51,2.72A14.84,14.84,0,0,1,75.24,173a9,9,0,0,1-.7-.68,17.37,17.37,0,0,1-2-2.71,16.06,16.06,0,0,0,2.8,2.14,5.86,5.86,0,0,0,.92,1.09Zm12-36.49,1.77.7c.59.25,1.13.58,1.7.88a11.68,11.68,0,0,1,1.41.91,9.54,9.54,0,0,1,1.34,1A16.47,16.47,0,0,1,96,141.27c-.57-.33-1.23-.46-1.8-.86s-.86-.66-1.38-1a13.53,13.53,0,0,0-1.72-1.11c-.35-.26-.76-.63-1.25-1l-1.58-1ZM70.06,164.93a11.83,11.83,0,0,1-.78-1.74c-.11-.31-.22-.62-.31-.94s-.13-.66-.19-1,.33-1,.57-1.45a8.75,8.75,0,0,0,.38,1.65l.25.83.37.84a11,11,0,0,0-.29,1.81Zm-.38-31.59A10.53,10.53,0,0,1,72.27,132a18,18,0,0,1,4.49-.27l-1.29.47c-1,.1-2,.23-3,.41s-1.89.38-2.79.7Zm33.5,15.16a12.34,12.34,0,0,1,.93,1.56,8.77,8.77,0,0,1,.75,1.71,7,7,0,0,1-.24,2.25c-.31-1-.55-2-.88-2.8a23.7,23.7,0,0,0-.56-2.72Zm2.88-.55a33.77,33.77,0,0,0-2.41-4.95,7.15,7.15,0,0,1-.49-1.37l1.2,1.69c.36.57.69,1.15,1,1.68A27.24,27.24,0,0,1,106.06,148ZM71.73,135a4.32,4.32,0,0,1,1-.69,20.83,20.83,0,0,1,4.3-.68,19.91,19.91,0,0,0-2.57.77,21.82,21.82,0,0,0-2.76.6Zm33,26a10.76,10.76,0,0,1-.27,2.67,10.34,10.34,0,0,1-1.39,2.53,22.39,22.39,0,0,0,.57-2.54c.4-.95.81-1.79,1.09-2.67ZM70.35,174.16a7.59,7.59,0,0,1-1.48-1.46,8.48,8.48,0,0,1-.86-1.49,14.74,14.74,0,0,1-.68-1.58A21.67,21.67,0,0,0,69,171.88a20.8,20.8,0,0,0,1.39,2.28Zm31.13.44a3.34,3.34,0,0,1-.51.93,22.68,22.68,0,0,1-4.6,3,21.12,21.12,0,0,0,2.41-2.15A26.11,26.11,0,0,0,101.48,174.6Zm-2-34a5.36,5.36,0,0,1-.55-1.27,9.72,9.72,0,0,1,1.67,1.6,7.55,7.55,0,0,1,.86,2C100.48,141.65,99.86,141.17,99.47,140.56Zm7.4,9.22a8.84,8.84,0,0,1,.66,2.06,12.31,12.31,0,0,1,.09,2.1c-.15-.71-.38-1.4-.6-2.17a14.44,14.44,0,0,0-.16-2Zm-37.4,4.92a8.82,8.82,0,0,1,.88-2.42c.21-.41.85-.65,1.28-1A13.62,13.62,0,0,0,71,153l-.81.85-.67.87ZM57.34,167.12l.64,2.67a8.22,8.22,0,0,1-.82-1.23,9.84,9.84,0,0,1-.49-1.45,17.85,17.85,0,0,1-.5-2c.6,1.17,1.1,1.63,1.17,2Zm45,1.3a5,5,0,0,1-.46,1.36,4.21,4.21,0,0,1-1.1.92c.17-.43.34-.85.52-1.43C101.66,169,102,168.7,102.31,168.42Zm-2.47-31.34a19.43,19.43,0,0,1,1.28,1.74,9.61,9.61,0,0,1-1-.78c-.53-.58-1.07-1.19-1.67-1.74l.11-.24a8.68,8.68,0,0,1,1.31,1Zm.83,3.23c-.15-.21-.12-.52-.2-.77.47.53.93,1.07,1.36,1.64a3.68,3.68,0,0,1,.37,1.15C101.54,141.35,101,140.87,100.67,140.31ZM58.1,155.44c0,.46.18.94.19,1.38A4.32,4.32,0,0,1,58,158l-.22-1.71c.07-.21.2-.52.32-.83Zm37.43,20.21a27.64,27.64,0,0,0,2.35-2.24,7,7,0,0,1,.94-.7l-.67.94A22.11,22.11,0,0,1,95.53,175.65Zm12.27-18.78a4.32,4.32,0,0,1,.23,1,8.22,8.22,0,0,1-.3,1.84,13,13,0,0,0-.09-1.55ZM59,162.34c.28.61.61,1.19.86,1.8a4.08,4.08,0,0,1,.1.81,12.41,12.41,0,0,1-.91-1.39c0-.47-.05-.84-.05-1.22Zm30.14,14.39a2.82,2.82,0,0,1,.91,0c-.45.19-.9.4-1.36.55a12.17,12.17,0,0,1-1.84.14c1.34-.37,1.81-.59,2.29-.73Zm-7.27,3.94,2,.37a1.41,1.41,0,0,1-.48.12,16.1,16.1,0,0,1-3.1-.48C81.3,180.68,81.61,180.62,81.88,180.67Zm10.35-1.32a5.93,5.93,0,0,1,.73-.16c-.41.2-.81.42-1.22.59a2.36,2.36,0,0,1-.75.05c.57-.18.89-.37,1.24-.48ZM68.68,164.79c.08,0,.27.38.41.59a4.63,4.63,0,0,1-.2.8c0,.07-.33-.3-.61-.69C68.44,165.16,68.53,164.84,68.68,164.79Zm2.18-10.1c-.16.22-.43.44-.57.44s-.06-.5,0-.65a2.07,2.07,0,0,1,.71-.58,7,7,0,0,1-.17.79Zm32.43,17.44a2.83,2.83,0,0,1,.71-.4,5.41,5.41,0,0,1-.53.92,3.06,3.06,0,0,1-.74.49A6.93,6.93,0,0,1,103.29,172.13Zm-17-39.81a8.8,8.8,0,0,1,1.34.35c-.14,0-.32.11-.43.07-.44-.13-.86-.29-1.35-.46a2.65,2.65,0,0,1,.44,0Zm14.33,11.07c-.14-.26-.22-.55-.36-.81a4.69,4.69,0,0,1,.58.75,12.15,12.15,0,0,1,.51,1.13C101,143.92,100.75,143.67,100.59,143.39ZM75.42,176.18a5.07,5.07,0,0,1-.87,0,2.15,2.15,0,0,1-.31-.38,4.28,4.28,0,0,1,.62-.16A6.6,6.6,0,0,0,75.42,176.18Zm6.69-44.87c-.23-.06-.33-.22-.49-.34a3.91,3.91,0,0,1,.64-.06,4.29,4.29,0,0,1,.93.4C82.62,131.3,82.27,131.35,82.11,131.31ZM105.19,166a7.23,7.23,0,0,1-.32,1,6,6,0,0,1-.51.83l.25-1c.22-.33.41-.61.58-.89Zm-.51-8.93a.68.68,0,0,1,.33-.42,1.24,1.24,0,0,1,.12.53,5.61,5.61,0,0,1-.27.92A4.78,4.78,0,0,1,104.68,157ZM91.42,131.21a4.6,4.6,0,0,1,.67.2,2.42,2.42,0,0,1,.45.31l-.89-.18Zm94.5-30a5.81,5.81,0,0,1,1,.42,3.17,3.17,0,0,1-.85.5,10.49,10.49,0,0,1-4.16.53,12.2,12.2,0,0,0,1.87.66c-.63,0-1.29-.07-1.91-.11a18.22,18.22,0,0,1-2.21,0,7,7,0,0,0,1.91,1.18,10.85,10.85,0,0,0,3.64.63,13.67,13.67,0,0,0,7.87-2.28c.71-.45,1-1.45,1.33-2.17a11.93,11.93,0,0,0,2.7-.43l-.06,0c.33-.42.66-.86,1-1.3a16.26,16.26,0,0,0,2.5-9.68,22.31,22.31,0,0,0-3.11-9.55c-.66-1.22-1.34-2.43-2.13-3.62a12.75,12.75,0,0,0-3-3.16,20.82,20.82,0,0,0-7.71-3.45,25.69,25.69,0,0,0-8.18-.5,26.25,26.25,0,0,0-12.73,4.81,23.17,23.17,0,0,0-8.43,11.47,25.76,25.76,0,0,0-.69,13.65,28.3,28.3,0,0,0,2.27,6.43,26.4,26.4,0,0,0,4,5.74A24.19,24.19,0,0,0,167,115.7a25.51,25.51,0,0,0,7.26,2.45,28,28,0,0,0,7.42.17,27.69,27.69,0,0,0,7.12-1.91,16.35,16.35,0,0,0,8-6.81,4.38,4.38,0,0,0,.51-3.09,3.63,3.63,0,0,0-1.38-2.12,8.94,8.94,0,0,0-5.32-1.38c-1.08,0-2.28-.26-3.05,0a37.62,37.62,0,0,1-3.54,1.46,7,7,0,0,1-3.78.27,24.78,24.78,0,0,1-4.67-1.26c-2.57-1.24-3.66-3.27-4.72-5.6-.8-1.89-1.87-4.12-1.78-6.41a9.38,9.38,0,0,1,.52-1.94A9.14,9.14,0,0,1,170.8,87a9.75,9.75,0,0,1,2.25-2.18,11.05,11.05,0,0,1,3.1-1.52,11.46,11.46,0,0,1,3.53-.59,12.36,12.36,0,0,1,5,1.2,9.62,9.62,0,0,1,4.14,3,8,8,0,0,1,1.92,5,6.17,6.17,0,0,1-.53,2.5,5.51,5.51,0,0,1-3.89,2.78,6,6,0,0,1-4.87-.8c-.37-.26-1-.35-1.47-.73a7.18,7.18,0,0,0-.67,1.17,4.64,4.64,0,0,0-.32,1.39c0,.33.47.65.73,1-.4-.32-.79-.68-1.15-1a13.09,13.09,0,0,1-1.69-1.27,8.13,8.13,0,0,0,1.77,4.9c.05.06.58-.07.9,0l1.37.31a9.71,9.71,0,0,0,1.22-.41l1.15-.39a5.55,5.55,0,0,1,2.61-.12ZM177.17,75.7a7.93,7.93,0,0,1,1.77-.17c.12,0,.22.19.33.3-.53.09-1.05.29-1.57.42-.3.08-.6.14-.89.23a3.64,3.64,0,0,1-.78.41A20.85,20.85,0,0,0,173.1,78a2.57,2.57,0,0,1-.14-.32A11.7,11.7,0,0,1,174.6,77a11.3,11.3,0,0,1,1.72-.5,2,2,0,0,1,.54,0C177,76.23,177,75.78,177.17,75.7Zm16.92,10.14a7.45,7.45,0,0,1,.19.94c-.3-.25-.74-.41-.84-.7a14.67,14.67,0,0,0-7.37-7.74,18,18,0,0,0-3.81-1.21,2.61,2.61,0,0,1-.72-.34,2.89,2.89,0,0,1,.81-.12,21.33,21.33,0,0,1,3.92,1.18,2.14,2.14,0,0,0,1.29-.19c.2-.07.22-.43.32-.66a8,8,0,0,1,.77,1.37,3.23,3.23,0,0,1,0,1.2c.43,0,.87-.07,1.33-.09l.82-.1,0,.31-.87-.26a1.63,1.63,0,0,0,.76,1.79,5.64,5.64,0,0,1,1.57,1.23l.73-.62.17.25-.93.36A16.32,16.32,0,0,1,194.09,85.84Zm.41,5.72a12.37,12.37,0,0,0,0-3.1,12.25,12.25,0,0,1,.73,3.56,2.82,2.82,0,0,1-.09.57,6.35,6.35,0,0,1-.28,1,6.93,6.93,0,0,1-.37.93,6.76,6.76,0,0,0-.1-1.12,5,5,0,0,0-.19-1A3.26,3.26,0,0,0,194.5,91.56ZM167.05,81.39a14.09,14.09,0,0,1,1.56-1.63,11,11,0,0,1,1.59-1.2,6.85,6.85,0,0,1,1-.63,7.63,7.63,0,0,1-.7,1.1c-.47.44-1.06.76-1.72,1.38a13.26,13.26,0,0,0-1.77,1Zm26.26,16.08a6.54,6.54,0,0,1-1.1,2.21c-.13.18-.66.14-1,.14a8.65,8.65,0,0,0,1-2,7.7,7.7,0,0,0,1.16-.35Zm-34.77-7.86a5.61,5.61,0,0,1,.1-1.8,10.6,10.6,0,0,1,1.6-2.37,8.5,8.5,0,0,0-.07.87,22.4,22.4,0,0,0-1.63,3.3Zm17.74-15.75a7,7,0,0,1,2.13-.88c.38-.08.89.38,1.32.62A13.48,13.48,0,0,0,178,74a13.57,13.57,0,0,0-1.69-.11Zm-.09-2.9-1.67.35-1.65.47a4.19,4.19,0,0,1-.93,0c.79-.38,1.62-.66,2.34-.94C175.1,70.85,175.65,70.91,176.19,71ZM161,89.28c-.05-.25-.2-.55-.13-.76A13.4,13.4,0,0,1,162,86.14a15.82,15.82,0,0,0-.32,1.59A12.83,12.83,0,0,0,161,89.28Zm23-15.37a4.13,4.13,0,0,1,1.65.12,5.41,5.41,0,0,1,1.46,1,13.53,13.53,0,0,0-1.59-.22,12.28,12.28,0,0,0-1.52-.92Zm15.28,20.37a4.37,4.37,0,0,1-.08,1.4,8.87,8.87,0,0,1-1.08,2,10.41,10.41,0,0,0,.42-1.82A12.05,12.05,0,0,0,199.21,94.28ZM193,74.75c.24.06.59.07.7.19a18.4,18.4,0,0,1,2,2.86c-.45-.36-.85-.74-1.58-1.26A17.56,17.56,0,0,0,193,74.75Zm-22-.12a2.38,2.38,0,0,1-.91,0,5.73,5.73,0,0,1,1.19-.82,5.22,5.22,0,0,1,1.4,0,14.47,14.47,0,0,1-1.68.88Zm6.42-4a6.7,6.7,0,0,1,1.32-.26,5.2,5.2,0,0,1,1.29.27c-.45.07-.9.11-1.38.22l-1.23-.23Zm11.66,31.7a4.21,4.21,0,0,1-1.39.84c-.27.08-.67-.12-1-.25a10.73,10.73,0,0,0,1-.64,7.7,7.7,0,0,0,1.42,0Zm-20.93,8.39c.42.43.73,1,1.13,1.42a2.75,2.75,0,0,1-.88-.35,10.41,10.41,0,0,1-1.62-1.63c.76.36,1.2.38,1.37.56Zm20.32-35.34a1.86,1.86,0,0,1,.9.16,2.35,2.35,0,0,1,.53.77l-1-.15A8.51,8.51,0,0,0,188.45,75.36Zm-19.84-2.48a10.14,10.14,0,0,1,1.3-.38,3.56,3.56,0,0,1-.61.56c-.43.25-.92.39-1.35.65l-.17-.19a3.3,3.3,0,0,1,.83-.64Zm2.27.59c-.15,0-.35-.08-.53-.12a10.88,10.88,0,0,1,1.2-.56c.14-.05.33,0,.78.08-.68.28-1.05.48-1.45.6Zm-5.49,30.17a2.71,2.71,0,0,1,.61.55,1.7,1.7,0,0,1,.15.73,8.94,8.94,0,0,1-.72-.7l0-.58Zm27.78-24.36c-.49-.45-1-.82-1.57-1.23a4.9,4.9,0,0,1-.44-.6,5.93,5.93,0,0,1,.66.32,15.52,15.52,0,0,1,1.35,1.51Zm-11.36-8.54c.22-.06.46-.2.66-.16a5.41,5.41,0,0,1,1.1.35c-.29,0-.59,0-1,0Zm-13.69,35.93a11.53,11.53,0,0,1,1.06.51c.12.07.16.3.24.46l-1-.28-.34-.69Zm25.72-23.29c-.07-.16,0-.39,0-.59a4.48,4.48,0,0,1,.54.68,4,4,0,0,1,.29,1C194.22,83.85,194,83.65,193.84,83.38Zm4.9,2.66-.2-1.16c.08.06.21.11.24.2a12.63,12.63,0,0,1,.52,1.72c-.35-.48-.52-.61-.56-.76Zm-2.56-5.54a3.19,3.19,0,0,1-.13-.44,6.37,6.37,0,0,1,.51.63c.06.08,0,.22.05.46-.19-.29-.33-.46-.43-.65Zm-2,18c-.06,0,0-.32.06-.5a2,2,0,0,1,.6-.13c.07,0,0,.32,0,.68-.29,0-.53,0-.66,0Zm-5.82,2.74a.58.58,0,0,1,.46.17c.05.06-.15.34-.26.36a1.16,1.16,0,0,1-.58-.16C188.11,101.48,188.23,101.25,188.33,101.25Zm2.94-27.52a1.46,1.46,0,0,1-.22-.53,2.45,2.45,0,0,1,.64.26c.13.11.16.3.28.54A2.73,2.73,0,0,1,191.27,73.73ZM163.41,80.5l.56-.63c0,.11.05.26,0,.31a8.14,8.14,0,0,1-.68.56A1.29,1.29,0,0,1,163.41,80.5Zm9.5-5.8a2.5,2.5,0,0,1-.55,0,3.2,3.2,0,0,1,.52-.27,3.1,3.1,0,0,1,.76-.07c-.38.13-.55.23-.73.29Zm24.76,16.14c.16.15.32.29.47.46a.92.92,0,0,1-.11.29,3.51,3.51,0,0,1-.51-.26C197.6,91.08,197.64,91,197.67,90.84ZM161.59,82.4c-.12.1-.28.07-.43.1a1.13,1.13,0,0,1,.13-.38,1.88,1.88,0,0,1,.58-.33C161.71,82.1,161.68,82.34,161.59,82.4Zm25.58-9.33a2.07,2.07,0,0,1,.65.16,2.43,2.43,0,0,1,.49.37l-.62-.11A5.3,5.3,0,0,0,187.17,73.07Zm-5.63.78c-.12,0-.18-.22-.22-.35a.63.63,0,0,1,.34-.09,2.82,2.82,0,0,1,.52.32c-.31.07-.51.16-.64.12Zm-18.15,2.73a1.78,1.78,0,0,1,.25-.36,1,1,0,0,1,.3-.17l-.26.54Z"/></g></g></g></g></svg>